<svg width="22" height="16" viewBox="0 0 22 16" fill="none" xmlns="http://www.w3.org/2000/svg">
<path d="M11 0C7.92389 0 5.21587 1.47784 3.26774 3.13562C2.29367 3.9645 1.50607 4.84191 0.944832 5.64288C0.383598 6.44385 0 7.09154 0 7.86592C1.57318e-07 8.6411 0.38651 9.25364 0.946369 10.0475C1.50623 10.8413 2.29313 11.7215 3.2662 12.5563C5.21234 14.2258 7.91916 15.7318 11 15.7318C14.0759 15.7318 16.7841 14.2551 18.7323 12.5978C19.7064 11.7691 20.4939 10.8918 21.0552 10.0905C21.6165 9.28925 22 8.64034 22 7.86592C22 7.09154 21.6164 6.44387 21.0552 5.64288C20.4939 4.84188 19.7063 3.96449 18.7323 3.13562C16.7841 1.47787 14.0761 0 11 0ZM11 3.14637C13.5972 3.14637 15.7196 5.2687 15.7196 7.86592C15.7196 10.4631 13.5972 12.5855 11 12.5855C8.40278 12.5855 6.28045 10.4631 6.28045 7.86592C6.28045 5.2687 8.40278 3.14637 11 3.14637ZM11 4.71955C9.25299 4.71955 7.85363 6.11892 7.85363 7.86592C7.85363 9.61293 9.25299 11.0123 11 11.0123C12.747 11.0123 14.1464 9.61293 14.1464 7.86592C14.1464 6.11892 12.747 4.71955 11 4.71955Z" fill="#808393"/>
</svg>
