<svg width="592" height="589" viewBox="0 0 592 589" fill="none" xmlns="http://www.w3.org/2000/svg">
<path d="M248.779 34.3326C267.179 34.2836 284.834 41.5249 297.811 54.443L537.021 291.322C564.057 318.156 564.057 361.596 537.021 388.43L389.457 534.555C362.5 561.25 318.837 561.389 291.707 534.867L55.297 303.743C42.1408 290.813 34.7197 273.232 34.6709 254.878V102.998C34.7145 65.093 65.7344 34.3758 104.013 34.3326H248.779Z" fill="black"/>
<path d="M248.779 0H104.013C46.5682 0 0 46.1137 0 102.998V254.878C0.000570792 282.423 11.1425 308.821 30.9369 328.174L267.348 559.299C308.042 599.082 373.536 598.873 413.971 558.832L561.536 412.706C602.155 372.483 602.155 307.269 561.536 267.046L322.327 30.1667C302.82 10.8518 276.365 0.000600495 248.779 0Z" fill="white"/>
<path d="M93.8581 92.9422C83.9423 102.761 80.9759 117.528 86.3423 130.358C91.7087 143.187 104.351 151.552 118.374 151.552C132.397 151.552 145.04 143.187 150.406 130.358C155.772 117.528 152.806 102.761 142.89 92.9422C129.35 79.5346 107.398 79.5346 93.8581 92.9422Z" fill="#FF2055"/>
<path d="M327.85 463.268C316.026 460.609 300.207 455.519 283.855 445.78C253.633 427.767 247.021 390.041 267.002 349.671C278.377 326.683 285.118 311.755 282.805 298.278C276.117 259.427 255.215 251.268 238.856 251.268C228.394 251.268 217.597 254.489 207.995 258.652C214.409 253.319 220.762 248.51 225.411 245.958C237.296 239.447 248.908 236.143 259.941 236.143C282.227 236.143 302.55 249.437 318.727 274.598C319.358 275.586 319.8 276.216 319.997 276.452L320.629 277.28C339.385 302.289 360.964 316.062 381.386 316.062C388.69 316.062 395.927 314.33 402.873 310.919C431.795 296.713 436.885 265.588 436.9 245.532C443.824 262.284 447.34 285.53 438.468 315.629C426.415 356.508 372.841 356.972 370.566 356.972L368.763 357.04C327.363 358.871 302.482 373.974 294.82 401.938C287.021 430.327 310.083 451.584 327.85 463.268Z" fill="#FF2055"/>
<path fill-rule="evenodd" clip-rule="evenodd" d="M401.184 307.508C442.652 287.133 431.711 227.908 431.711 227.908C440.667 241.141 455.664 270.693 442.12 316.708C429.36 359.988 374.553 360.778 370.566 360.778H370.338C369.915 360.798 369.447 360.819 368.937 360.841C354.944 361.46 309.308 363.477 298.487 402.948C287.264 443.873 347.793 469.961 347.793 469.961C347.793 469.961 316.17 469.474 281.915 449.054C247.652 428.633 244.121 387.352 263.6 348C274.131 326.728 281.238 311.61 279.061 298.931C273.271 265.33 256.805 255.082 238.856 255.082C210.802 255.082 179.157 280.129 179.157 280.129C182.048 276.528 209.676 250.265 223.577 242.638C237.022 235.269 249.159 232.352 259.94 232.352C296.066 232.352 317.111 265.071 321.919 272.546C322.408 273.307 322.729 273.806 322.881 273.983C323.013 274.137 323.275 274.487 323.661 275.001C328.38 281.294 351.605 312.264 381.378 312.264C387.716 312.264 394.367 310.858 401.184 307.508ZM315.516 276.657C300.077 252.643 280.857 239.949 259.933 239.949C250.132 239.949 239.769 242.752 229.117 248.283C232.358 247.766 235.622 247.47 238.848 247.47C256.668 247.47 279.411 256.176 286.549 297.632C289.242 313.305 280.515 330.937 270.41 351.35C251.373 389.813 257.414 425.595 285.803 442.521C294.15 447.497 302.352 451.227 309.923 454.015C296.212 441.123 285.042 423.141 291.129 400.935C299.278 371.201 325.331 355.156 368.572 353.242L369.942 353.181L370.185 353.173H370.429C372.704 353.173 423.547 352.74 434.8 314.558C440.377 295.649 440.902 279.567 438.764 266.211C435.318 284.14 426.263 303.656 404.54 314.33C397.06 318.007 389.269 319.868 381.378 319.868C359.731 319.868 337.064 305.556 317.57 279.567L317.015 278.83C316.847 278.64 316.299 277.873 315.516 276.657Z" fill="#FF2055"/>
</svg>
